<svg xmlns="http://www.w3.org/2000/svg" width="176" height="92" viewBox="0 0 176 92">
  <g id="Group_3" data-name="Group 3" transform="translate(-144 -144)">
    <circle id="Ellipse_1" data-name="Ellipse 1" cx="4" cy="4" r="4" transform="translate(144 144)" fill="#4a5568"/>
    <circle id="Ellipse_1-2" data-name="Ellipse 1" cx="4" cy="4" r="4" transform="translate(172 144)" fill="#4a5568"/>
    <circle id="Ellipse_1-3" data-name="Ellipse 1" cx="4" cy="4" r="4" transform="translate(200 144)" fill="#4a5568"/>
    <circle id="Ellipse_1-4" data-name="Ellipse 1" cx="4" cy="4" r="4" transform="translate(228 144)" fill="#4a5568"/>
    <circle id="Ellipse_1-5" data-name="Ellipse 1" cx="4" cy="4" r="4" transform="translate(256 144)" fill="#4a5568"/>
    <circle id="Ellipse_1-6" data-name="Ellipse 1" cx="4" cy="4" r="4" transform="translate(284 144)" fill="#4a5568"/>
    <circle id="Ellipse_1-7" data-name="Ellipse 1" cx="4" cy="4" r="4" transform="translate(312 144)" fill="#4c51bf"/>
    <circle id="Ellipse_1-8" data-name="Ellipse 1" cx="4" cy="4" r="4" transform="translate(144 172)" fill="#4c51bf"/>
    <circle id="Ellipse_1-9" data-name="Ellipse 1" cx="4" cy="4" r="4" transform="translate(172 172)" fill="#4a5568"/>
    <circle id="Ellipse_1-10" data-name="Ellipse 1" cx="4" cy="4" r="4" transform="translate(200 172)" fill="#4a5568"/>
    <circle id="Ellipse_1-11" data-name="Ellipse 1" cx="4" cy="4" r="4" transform="translate(228 172)" fill="#4a5568"/>
    <circle id="Ellipse_1-12" data-name="Ellipse 1" cx="4" cy="4" r="4" transform="translate(256 172)" fill="#4c51bf"/>
    <circle id="Ellipse_1-13" data-name="Ellipse 1" cx="4" cy="4" r="4" transform="translate(284 172)" fill="#4a5568"/>
    <circle id="Ellipse_1-14" data-name="Ellipse 1" cx="4" cy="4" r="4" transform="translate(312 172)" fill="#4a5568"/>
    <circle id="Ellipse_1-15" data-name="Ellipse 1" cx="4" cy="4" r="4" transform="translate(144 200)" fill="#4a5568"/>
    <circle id="Ellipse_1-16" data-name="Ellipse 1" cx="4" cy="4" r="4" transform="translate(172 200)" fill="#4a5568"/>
    <circle id="Ellipse_1-17" data-name="Ellipse 1" cx="4" cy="4" r="4" transform="translate(200 200)" fill="#4c51bf"/>
    <circle id="Ellipse_1-18" data-name="Ellipse 1" cx="4" cy="4" r="4" transform="translate(228 200)" fill="#4a5568"/>
    <circle id="Ellipse_1-19" data-name="Ellipse 1" cx="4" cy="4" r="4" transform="translate(256 200)" fill="#4a5568"/>
    <circle id="Ellipse_1-20" data-name="Ellipse 1" cx="4" cy="4" r="4" transform="translate(284 200)" fill="#4a5568"/>
    <circle id="Ellipse_1-21" data-name="Ellipse 1" cx="4" cy="4" r="4" transform="translate(312 200)" fill="#4a5568"/>
    <circle id="Ellipse_1-22" data-name="Ellipse 1" cx="4" cy="4" r="4" transform="translate(144 228)" fill="#4a5568"/>
    <circle id="Ellipse_1-23" data-name="Ellipse 1" cx="4" cy="4" r="4" transform="translate(172 228)" fill="#4c51bf"/>
    <circle id="Ellipse_1-24" data-name="Ellipse 1" cx="4" cy="4" r="4" transform="translate(200 228)" fill="#4a5568"/>
    <circle id="Ellipse_1-25" data-name="Ellipse 1" cx="4" cy="4" r="4" transform="translate(228 228)" fill="#4a5568"/>
    <circle id="Ellipse_1-26" data-name="Ellipse 1" cx="4" cy="4" r="4" transform="translate(256 228)" fill="#4a5568"/>
    <circle id="Ellipse_1-27" data-name="Ellipse 1" cx="4" cy="4" r="4" transform="translate(284 228)" fill="#4c51bf"/>
    <circle id="Ellipse_1-28" data-name="Ellipse 1" cx="4" cy="4" r="4" transform="translate(312 228)" fill="#4a5568"/>
  </g>
</svg>
