<svg xmlns="http://www.w3.org/2000/svg" width="120" height="204" viewBox="0 0 120 204">
  <g id="Group_57" data-name="Group 57" transform="translate(-1154 -140)">
    <circle id="Ellipse_1" data-name="Ellipse 1" cx="4" cy="4" r="4" transform="translate(1154 140)" fill="#4a5568"/>
    <circle id="Ellipse_1-2" data-name="Ellipse 1" cx="4" cy="4" r="4" transform="translate(1182 140)" fill="#4a5568"/>
    <circle id="Ellipse_1-3" data-name="Ellipse 1" cx="4" cy="4" r="4" transform="translate(1210 140)" fill="#4a5568"/>
    <circle id="Ellipse_1-4" data-name="Ellipse 1" cx="4" cy="4" r="4" transform="translate(1238 140)" fill="#4c51bf"/>
    <circle id="Ellipse_1-5" data-name="Ellipse 1" cx="4" cy="4" r="4" transform="translate(1266 140)" fill="#4a5568"/>
    <circle id="Ellipse_1-6" data-name="Ellipse 1" cx="4" cy="4" r="4" transform="translate(1154 168)" fill="#4a5568"/>
    <circle id="Ellipse_1-7" data-name="Ellipse 1" cx="4" cy="4" r="4" transform="translate(1182 168)" fill="#4a5568"/>
    <circle id="Ellipse_1-8" data-name="Ellipse 1" cx="4" cy="4" r="4" transform="translate(1210 168)" fill="#4a5568"/>
    <circle id="Ellipse_1-9" data-name="Ellipse 1" cx="4" cy="4" r="4" transform="translate(1238 168)" fill="#4a5568"/>
    <circle id="Ellipse_1-10" data-name="Ellipse 1" cx="4" cy="4" r="4" transform="translate(1266 168)" fill="#4a5568"/>
    <circle id="Ellipse_1-11" data-name="Ellipse 1" cx="4" cy="4" r="4" transform="translate(1154 196)" fill="#4a5568"/>
    <circle id="Ellipse_1-12" data-name="Ellipse 1" cx="4" cy="4" r="4" transform="translate(1182 196)" fill="#4c51bf"/>
    <circle id="Ellipse_1-13" data-name="Ellipse 1" cx="4" cy="4" r="4" transform="translate(1210 196)" fill="#4a5568"/>
    <circle id="Ellipse_1-14" data-name="Ellipse 1" cx="4" cy="4" r="4" transform="translate(1238 196)" fill="#4a5568"/>
    <circle id="Ellipse_1-15" data-name="Ellipse 1" cx="4" cy="4" r="4" transform="translate(1266 196)" fill="#4a5568"/>
    <circle id="Ellipse_1-16" data-name="Ellipse 1" cx="4" cy="4" r="4" transform="translate(1154 224)" fill="#4a5568"/>
    <circle id="Ellipse_1-17" data-name="Ellipse 1" cx="4" cy="4" r="4" transform="translate(1182 224)" fill="#4a5568"/>
    <circle id="Ellipse_1-18" data-name="Ellipse 1" cx="4" cy="4" r="4" transform="translate(1210 224)" fill="#4a5568"/>
    <circle id="Ellipse_1-19" data-name="Ellipse 1" cx="4" cy="4" r="4" transform="translate(1238 224)" fill="#4a5568"/>
    <circle id="Ellipse_1-20" data-name="Ellipse 1" cx="4" cy="4" r="4" transform="translate(1266 224)" fill="#4c51bf"/>
    <circle id="Ellipse_1-21" data-name="Ellipse 1" cx="4" cy="4" r="4" transform="translate(1154 252)" fill="#4a5568"/>
    <circle id="Ellipse_1-22" data-name="Ellipse 1" cx="4" cy="4" r="4" transform="translate(1182 252)" fill="#4a5568"/>
    <circle id="Ellipse_1-23" data-name="Ellipse 1" cx="4" cy="4" r="4" transform="translate(1210 252)" fill="#4a5568"/>
    <circle id="Ellipse_1-24" data-name="Ellipse 1" cx="4" cy="4" r="4" transform="translate(1238 252)" fill="#4a5568"/>
    <circle id="Ellipse_1-25" data-name="Ellipse 1" cx="4" cy="4" r="4" transform="translate(1266 252)" fill="#4a5568"/>
    <circle id="Ellipse_1-26" data-name="Ellipse 1" cx="4" cy="4" r="4" transform="translate(1154 280)" fill="#4a5568"/>
    <circle id="Ellipse_1-27" data-name="Ellipse 1" cx="4" cy="4" r="4" transform="translate(1182 280)" fill="#4a5568"/>
    <circle id="Ellipse_1-28" data-name="Ellipse 1" cx="4" cy="4" r="4" transform="translate(1210 280)" fill="#4c51bf"/>
    <circle id="Ellipse_1-29" data-name="Ellipse 1" cx="4" cy="4" r="4" transform="translate(1238 280)" fill="#4a5568"/>
    <circle id="Ellipse_1-30" data-name="Ellipse 1" cx="4" cy="4" r="4" transform="translate(1266 280)" fill="#4a5568"/>
    <circle id="Ellipse_1-31" data-name="Ellipse 1" cx="4" cy="4" r="4" transform="translate(1154 308)" fill="#4c51bf"/>
    <circle id="Ellipse_1-32" data-name="Ellipse 1" cx="4" cy="4" r="4" transform="translate(1182 308)" fill="#4a5568"/>
    <circle id="Ellipse_1-33" data-name="Ellipse 1" cx="4" cy="4" r="4" transform="translate(1210 308)" fill="#4a5568"/>
    <circle id="Ellipse_1-34" data-name="Ellipse 1" cx="4" cy="4" r="4" transform="translate(1238 308)" fill="#4a5568"/>
    <circle id="Ellipse_1-35" data-name="Ellipse 1" cx="4" cy="4" r="4" transform="translate(1266 308)" fill="#4a5568"/>
    <circle id="Ellipse_1-36" data-name="Ellipse 1" cx="4" cy="4" r="4" transform="translate(1154 336)" fill="#4a5568"/>
    <circle id="Ellipse_1-37" data-name="Ellipse 1" cx="4" cy="4" r="4" transform="translate(1182 336)" fill="#4c51bf"/>
    <circle id="Ellipse_1-38" data-name="Ellipse 1" cx="4" cy="4" r="4" transform="translate(1210 336)" fill="#4a5568"/>
    <circle id="Ellipse_1-39" data-name="Ellipse 1" cx="4" cy="4" r="4" transform="translate(1238 336)" fill="#4a5568"/>
    <circle id="Ellipse_1-40" data-name="Ellipse 1" cx="4" cy="4" r="4" transform="translate(1266 336)" fill="#4c51bf"/>
  </g>
</svg>
